<svg width="20" height="21" viewBox="0 0 20 21" fill="none" xmlns="http://www.w3.org/2000/svg">
<g clip-path="url(#clip0_29_352)">
<path fill-rule="evenodd" clip-rule="evenodd" d="M6.13568 1.73655C7.07245 1.69342 7.37113 1.68384 9.75738 1.68384C12.1436 1.68384 12.4423 1.69422 13.3783 1.73655C14.3143 1.77887 14.9531 1.92821 15.5122 2.14464C16.0976 2.36585 16.6286 2.71165 17.0679 3.15887C17.5151 3.59731 17.8601 4.12759 18.0805 4.71377C18.2977 5.2728 18.4463 5.91168 18.4894 6.84606C18.5325 7.78443 18.5421 8.08311 18.5421 10.4686C18.5421 12.8548 18.5317 13.1535 18.4894 14.0903C18.4471 15.0246 18.2977 15.6635 18.0805 16.2226C17.8601 16.8088 17.5145 17.34 17.0679 17.779C16.6286 18.2263 16.0976 18.5713 15.5122 18.7917C14.9531 19.0089 14.3143 19.1574 13.3799 19.2006C12.4423 19.2437 12.1436 19.2533 9.75738 19.2533C7.37113 19.2533 7.07245 19.2429 6.13568 19.2006C5.2013 19.1582 4.56241 19.0089 4.00339 18.7917C3.41714 18.5712 2.88598 18.2257 2.44689 17.779C1.99997 17.3403 1.65412 16.8094 1.43345 16.2234C1.21703 15.6643 1.06849 15.0254 1.02536 14.0911C0.98224 13.1527 0.972656 12.854 0.972656 10.4686C0.972656 8.08231 0.983038 7.78363 1.02536 6.84766C1.06769 5.91168 1.21703 5.2728 1.43345 4.71377C1.65445 4.12765 2.00056 3.59676 2.44769 3.15807C2.88616 2.71125 3.41678 2.36541 4.00259 2.14464C4.56161 1.92821 5.2005 1.77967 6.13488 1.73655H6.13568ZM13.3072 3.3178C12.3808 3.27547 12.1029 3.26669 9.75738 3.26669C7.41186 3.26669 7.13394 3.27547 6.20755 3.3178C5.35064 3.35693 4.88585 3.49988 4.57599 3.62047C4.1663 3.78019 3.87321 3.96946 3.56575 4.27693C3.27429 4.56048 3.04999 4.90566 2.90929 5.28717C2.7887 5.59703 2.64575 6.06182 2.60661 6.91873C2.56429 7.84512 2.5555 8.12304 2.5555 10.4686C2.5555 12.8141 2.56429 13.092 2.60661 14.0184C2.64575 14.8753 2.7887 15.3401 2.90929 15.6499C3.04984 16.0309 3.27425 16.3767 3.56575 16.6602C3.84925 16.9517 4.19505 17.1761 4.57599 17.3166C4.88585 17.4372 5.35064 17.5802 6.20755 17.6193C7.13394 17.6616 7.41106 17.6704 9.75738 17.6704C12.1037 17.6704 12.3808 17.6616 13.3072 17.6193C14.1641 17.5802 14.6289 17.4372 14.9388 17.3166C15.3485 17.1569 15.6415 16.9677 15.949 16.6602C16.2405 16.3767 16.4649 16.0309 16.6055 15.6499C16.7261 15.3401 16.869 14.8753 16.9081 14.0184C16.9505 13.092 16.9593 12.8141 16.9593 10.4686C16.9593 8.12304 16.9505 7.84512 16.9081 6.91873C16.869 6.06182 16.7261 5.59703 16.6055 5.28717C16.4457 4.87748 16.2565 4.58439 15.949 4.27693C15.6654 3.98549 15.3203 3.76119 14.9388 3.62047C14.6289 3.49988 14.1641 3.35693 13.3072 3.3178ZM8.63533 13.1766C9.26197 13.4375 9.95973 13.4727 10.6094 13.2763C11.2591 13.0798 11.8205 12.6639 12.1976 12.0995C12.5747 11.5352 12.7442 10.8574 12.6771 10.1819C12.61 9.5065 12.3105 8.87531 11.8298 8.39616C11.5233 8.08988 11.1527 7.85535 10.7447 7.70948C10.3367 7.5636 9.90147 7.50999 9.47027 7.55252C9.03908 7.59505 8.62267 7.73266 8.25104 7.95543C7.87941 8.17821 7.56179 8.48061 7.32106 8.84087C7.08032 9.20113 6.92246 9.61028 6.85883 10.0389C6.7952 10.4675 6.82739 10.9048 6.95309 11.3195C7.07878 11.7341 7.29485 12.1158 7.58573 12.4369C7.87662 12.758 8.23509 13.0107 8.63533 13.1766ZM6.56453 7.27571C6.98382 6.85642 7.48159 6.52382 8.02942 6.2969C8.57725 6.06999 9.16441 5.95319 9.75738 5.95319C10.3503 5.95319 10.9375 6.06998 11.4853 6.2969C12.0332 6.52382 12.5309 6.85642 12.9502 7.27571C13.3695 7.695 13.7021 8.19277 13.929 8.7406C14.156 9.28843 14.2727 9.87559 14.2727 10.4686C14.2727 11.0615 14.156 11.6487 13.929 12.1965C13.7021 12.7443 13.3695 13.2421 12.9502 13.6614C12.1034 14.5082 10.9549 14.9839 9.75738 14.9839C8.55983 14.9839 7.41133 14.5082 6.56453 13.6614C5.71773 12.8146 5.24201 11.6661 5.24201 10.4686C5.24201 9.27101 5.71773 8.12251 6.56453 7.27571ZM15.2742 6.62564C15.3781 6.52763 15.4613 6.40976 15.5188 6.27903C15.5763 6.14829 15.6071 6.00733 15.6091 5.86451C15.6112 5.72169 15.5846 5.5799 15.5309 5.44754C15.4772 5.31518 15.3975 5.19494 15.2965 5.09394C15.1955 4.99294 15.0753 4.91323 14.9429 4.85953C14.8106 4.80583 14.6688 4.77923 14.5259 4.78132C14.3831 4.7834 14.2422 4.81412 14.1114 4.87165C13.9807 4.92918 13.8628 5.01237 13.7648 5.11627C13.5742 5.31834 13.4698 5.58675 13.4739 5.86451C13.4779 6.14227 13.5901 6.40753 13.7865 6.60396C13.9829 6.80038 14.2482 6.91253 14.5259 6.91658C14.8037 6.92063 15.0721 6.81626 15.2742 6.62564Z" fill="#FF8800"/>
</g>
<defs>
<clipPath id="clip0_29_352">
<rect width="19.1667" height="19.1667" fill="white" transform="translate(0.173828 0.885254)"/>
</clipPath>
</defs>
</svg>
