<svg width="15" height="14" viewBox="0 0 15 14" fill="none" xmlns="http://www.w3.org/2000/svg">
<g clip-path="url(#clip0_50_116)">
<path d="M12.6278 12.25L10.0109 9.62846L12.6278 12.25ZM11.4611 6.12496C11.4611 7.43999 10.9387 8.70116 10.0088 9.63103C9.07897 10.5609 7.8178 11.0833 6.50277 11.0833C5.18774 11.0833 3.92656 10.5609 2.9967 9.63103C2.06683 8.70116 1.54443 7.43999 1.54443 6.12496C1.54443 4.80993 2.06683 3.54876 2.9967 2.61889C3.92656 1.68902 5.18774 1.16663 6.50277 1.16663C7.8178 1.16663 9.07897 1.68902 10.0088 2.61889C10.9387 3.54876 11.4611 4.80993 11.4611 6.12496V6.12496Z" stroke="white" stroke-width="1.4" stroke-linecap="round"/>
</g>
<defs>
<clipPath id="clip0_50_116">
<rect width="14" height="14" fill="white" transform="translate(0.37793)"/>
</clipPath>
</defs>
</svg>
