<svg width="23" height="23" viewBox="0 0 23 23" fill="none" xmlns="http://www.w3.org/2000/svg">
<path d="M20.308 6.88862C20.1998 6.48566 19.9877 6.11817 19.6928 5.82295C19.398 5.52773 19.0308 5.31513 18.6279 5.20642C17.1451 4.80762 11.2012 4.80762 11.2012 4.80762C11.2012 4.80762 5.25731 4.80762 3.77452 5.2043C3.37151 5.31266 3.00411 5.52514 2.70921 5.82042C2.4143 6.11569 2.20228 6.48336 2.09444 6.8865C1.69775 8.37142 1.69775 11.4685 1.69775 11.4685C1.69775 11.4685 1.69775 14.5656 2.09444 16.0484C2.31293 16.8673 2.95781 17.5121 3.77452 17.7306C5.25731 18.1294 11.2012 18.1294 11.2012 18.1294C11.2012 18.1294 17.1451 18.1294 18.6279 17.7306C19.4468 17.5121 20.0895 16.8673 20.308 16.0484C20.7047 14.5656 20.7047 11.4685 20.7047 11.4685C20.7047 11.4685 20.7047 8.37142 20.308 6.88862ZM9.31326 14.3111V8.62598L14.2347 11.4473L9.31326 14.3111Z" fill="#FF8800"/>
</svg>
