<svg width="45" height="36" viewBox="0 0 45 36" fill="none" xmlns="http://www.w3.org/2000/svg">
<g clip-path="url(#clip0_29_189)">
<path d="M22.5005 3.66684C27.799 3.66684 32.5611 5.50243 35.7681 8.8042C38.407 9.14863 40.8964 10.2302 42.9526 11.9256C39.3547 4.33693 31.902 0.0930176 22.5005 0.0930176C13.2274 0.0930176 5.72328 4.3312 2.08252 11.8969C3.96777 10.3526 6.21667 9.32021 8.61363 8.8987C11.7608 5.45374 16.7197 3.66684 22.5005 3.66684Z" fill="white"/>
<path d="M33.9136 34.4567C30.9447 34.4602 28.0921 33.2989 25.9644 31.2208L25.9587 31.2151C25.7128 31.0296 25.449 30.8694 25.1712 30.7368C24.335 30.3473 23.4225 30.1506 22.5006 30.1612C21.3193 30.1612 20.4206 30.4562 19.8328 30.7368C19.554 30.8692 19.2892 31.0295 19.0424 31.2151L19.0367 31.2208C17.6952 32.5279 16.0542 33.4842 14.258 34.0057C12.4619 34.5271 10.5656 34.5976 8.73596 34.2111C6.90629 33.8245 5.19926 32.9927 3.76498 31.7888C2.3307 30.585 1.21309 29.0458 0.510422 27.3068C-0.192245 25.5678 -0.458449 23.6822 -0.264782 21.8157C-0.0711143 19.9492 0.576492 18.1591 1.62109 16.6027C2.6657 15.0463 4.0753 13.7713 5.72596 12.8899C7.37662 12.0084 9.21778 11.5475 11.0875 11.5476H33.9136C36.9406 11.5476 39.8435 12.7544 41.9839 14.9026C44.1242 17.0507 45.3267 19.9642 45.3267 23.0022C45.3267 26.0401 44.1242 28.9536 41.9839 31.1017C39.8435 33.2499 36.9406 34.4567 33.9136 34.4567Z" fill="white"/>
</g>
<defs>
<clipPath id="clip0_29_189">
<rect width="45" height="36" fill="white"/>
</clipPath>
</defs>
</svg>
