<svg width="22" height="23" viewBox="0 0 22 23" fill="none" xmlns="http://www.w3.org/2000/svg">
<path d="M8.7452 10.5372C8.25464 10.5372 7.86816 10.9672 7.86816 11.4921C7.86816 12.0152 8.26369 12.447 8.7452 12.447C9.23485 12.447 9.62133 12.0152 9.62133 11.4921C9.63128 10.9662 9.23485 10.5372 8.7452 10.5372ZM11.8841 10.5372C11.3935 10.5372 11.007 10.9672 11.007 11.4921C11.007 12.0152 11.4026 12.447 11.8841 12.447C12.3737 12.447 12.7602 12.0152 12.7602 11.4921C12.7593 10.9662 12.3737 10.5372 11.8841 10.5372Z" fill="#FF8800"/>
<path d="M16.0628 3.32275H4.54005C4.30804 3.32335 4.07842 3.36963 3.86429 3.45897C3.65017 3.54831 3.45574 3.67894 3.2921 3.84342C3.12847 4.0079 2.99883 4.20299 2.91059 4.41757C2.82235 4.63215 2.77724 4.86201 2.77784 5.09402V16.719C2.77784 17.6992 3.56889 18.4903 4.54005 18.4903H14.2906L13.8335 16.8982L14.935 17.9219L15.975 18.8849L17.825 20.5195V5.09402C17.8256 4.86201 17.7805 4.63215 17.6923 4.41757C17.604 4.20299 17.4744 4.0079 17.3107 3.84342C17.1471 3.67894 16.9527 3.54831 16.7385 3.45897C16.5244 3.36963 16.2948 3.32335 16.0628 3.32275ZM12.7429 14.5522C12.7429 14.5522 12.4334 14.183 12.1763 13.8544C13.3023 13.5358 13.7322 12.8317 13.7322 12.8317C13.3792 13.0634 13.0443 13.2281 12.7429 13.3403C11.6457 13.7995 10.4373 13.9248 9.26916 13.7005C8.83753 13.6158 8.41458 13.4915 8.00565 13.3295C7.78998 13.2475 7.58038 13.1504 7.37842 13.0389C7.35218 13.0199 7.32683 13.0127 7.30149 12.9955C7.28793 12.989 7.2759 12.9798 7.26619 12.9683C7.11142 12.8832 7.02544 12.8235 7.02544 12.8235C7.02544 12.8235 7.43816 13.5114 8.53061 13.8381C8.27265 14.164 7.95406 14.5522 7.95406 14.5522C6.05427 14.4916 5.33291 13.2453 5.33291 13.2453C5.33291 10.4766 6.57108 8.23288 6.57108 8.23288C7.80925 7.30335 8.98677 7.3296 8.98677 7.3296L9.07276 7.43278C7.52505 7.8808 6.81093 8.55962 6.81093 8.55962C6.81093 8.55962 7.001 8.45644 7.31869 8.31072C8.23826 7.90705 8.96867 7.79482 9.27007 7.76857C9.32166 7.76042 9.3651 7.75137 9.41669 7.75137C10.9076 7.55046 12.4236 7.83379 13.7412 8.55962C13.7412 8.55962 13.0615 7.91519 11.5998 7.46808L11.7202 7.3305C11.7202 7.3305 12.8986 7.30426 14.1358 8.23379C14.1358 8.23379 15.374 10.4775 15.374 13.2462C15.374 13.2453 14.6436 14.4916 12.7429 14.5522Z" fill="#FF8800"/>
</svg>
