<svg width="194" height="194" viewBox="0 0 194 194" fill="none" xmlns="http://www.w3.org/2000/svg">
<g clip-path="url(#clip0_641_10)">
<path d="M131.62 41.9527C122.107 40.2763 112.183 39.8683 102.201 40.7708C102.117 40.7906 102.038 40.8286 101.97 40.8821C101.902 40.9357 101.846 41.0035 101.807 41.0809C101.225 43.4861 100.622 46.5782 100.294 48.9153C89.7681 50.1 79.4792 52.8569 69.771 57.0939C68.3014 55.1704 66.2504 52.8575 64.4799 51.0827C64.3822 50.9726 64.1744 50.9601 63.9836 51.0112C54.8881 55.2204 46.5615 60.5185 39.0968 66.7443C39.0332 66.7614 38.9867 66.842 38.9401 66.9226C28.5784 97.4384 30.5566 123.898 39.5887 148.195C39.6228 148.322 39.7204 148.432 39.8647 148.462C53.56 153.789 65.9242 155.928 77.7012 156.385C77.909 156.397 78.0827 156.282 78.1122 156.138C79.7187 151.959 81.0197 147.658 81.9516 143.25C82.0106 142.962 81.8153 142.742 81.5439 142.746C77.5444 142.318 73.6675 141.585 69.7861 140.581C69.4977 140.522 69.3954 140.14 69.5351 139.898C70.0983 139.202 70.6444 138.442 71.2076 137.746C71.3007 137.585 71.4914 137.534 71.6357 137.563C96.1858 141.686 119.778 135.364 138.723 119.587C138.833 119.49 139.024 119.438 139.185 119.532C140.038 119.916 140.874 120.238 141.727 120.623C142.032 120.745 142.135 121.127 141.851 121.339C139.072 124.196 136.001 126.723 132.751 129.094C132.514 129.225 132.535 129.56 132.65 129.734C135.724 133.068 139.002 136.143 142.419 138.976C142.627 138.988 142.835 139 143.008 138.886C153.043 132.585 162.681 124.55 171.878 113.089C171.988 112.991 172.017 112.847 171.983 112.72C167.063 83.1638 152.926 60.1665 131.909 42.0117C131.828 41.9652 131.748 41.9186 131.62 41.9527V41.9527ZM79.5843 121.189C73.0346 122.944 65.9471 118.368 63.9536 110.928C61.96 103.488 65.6829 96.0158 72.3598 94.2267C79.1004 92.4205 86.0777 97.0939 87.9906 104.487C89.9842 111.927 86.2613 119.4 79.5843 121.189ZM123.907 109.313C117.357 111.068 110.269 106.492 108.276 99.052C106.282 91.612 110.005 84.1396 116.682 82.3505C123.423 80.5444 130.4 85.2178 132.313 92.6113C134.306 100.051 130.647 107.507 123.907 109.313Z" fill="url(#paint0_linear_641_10)"/>
</g>
<defs>
<linearGradient id="paint0_linear_641_10" x1="83.134" y1="45.8796" x2="110.403" y2="147.65" gradientUnits="userSpaceOnUse">
<stop offset="0.552083" stop-color="#181A1D"/>
<stop offset="1" stop-color="#202225"/>
</linearGradient>
<clipPath id="clip0_641_10">
<rect width="158" height="158" fill="white" transform="translate(0 40.8934) rotate(-15)"/>
</clipPath>
</defs>
</svg>
