<svg width="1440" height="256" viewBox="0 0 1440 256" fill="none" xmlns="http://www.w3.org/2000/svg">
<path fill-rule="evenodd" clip-rule="evenodd" d="M1216 4C1217.1 4 1218 3.10457 1218 2C1218 0.895431 1217.1 0 1216 0C1214.9 0 1214 0.895431 1214 2C1214 3.10457 1214.9 4 1216 4ZM1216 172C1217.1 172 1218 171.105 1218 170C1218 168.895 1217.1 168 1216 168C1214.9 168 1214 168.895 1214 170C1214 171.105 1214.9 172 1216 172ZM1386 2C1386 3.10457 1385.1 4 1384 4C1382.9 4 1382 3.10457 1382 2C1382 0.895431 1382.9 0 1384 0C1385.1 0 1386 0.895431 1386 2ZM1384 172C1385.1 172 1386 171.105 1386 170C1386 168.895 1385.1 168 1384 168C1382.9 168 1382 168.895 1382 170C1382 171.105 1382.9 172 1384 172ZM1218 86C1218 87.1046 1217.1 88 1216 88C1214.9 88 1214 87.1046 1214 86C1214 84.8954 1214.9 84 1216 84C1217.1 84 1218 84.8954 1218 86ZM1216 256C1217.1 256 1218 255.105 1218 254C1218 252.895 1217.1 252 1216 252C1214.9 252 1214 252.895 1214 254C1214 255.105 1214.9 256 1216 256ZM1386 86C1386 87.1046 1385.1 88 1384 88C1382.9 88 1382 87.1046 1382 86C1382 84.8954 1382.9 84 1384 84C1385.1 84 1386 84.8954 1386 86ZM1384 256C1385.1 256 1386 255.105 1386 254C1386 252.895 1385.1 252 1384 252C1382.9 252 1382 252.895 1382 254C1382 255.105 1382.9 256 1384 256ZM1302 2C1302 3.10457 1301.1 4 1300 4C1298.9 4 1298 3.10457 1298 2C1298 0.895431 1298.9 0 1300 0C1301.1 0 1302 0.895431 1302 2ZM1300 172C1301.1 172 1302 171.105 1302 170C1302 168.895 1301.1 168 1300 168C1298.9 168 1298 168.895 1298 170C1298 171.105 1298.9 172 1300 172ZM1470 2C1470 3.10457 1469.1 4 1468 4C1466.9 4 1466 3.10457 1466 2C1466 0.895431 1466.9 0 1468 0C1469.1 0 1470 0.895431 1470 2ZM1468 172C1469.1 172 1470 171.105 1470 170C1470 168.895 1469.1 168 1468 168C1466.9 168 1466 168.895 1466 170C1466 171.105 1466.9 172 1468 172ZM1302 86C1302 87.1046 1301.1 88 1300 88C1298.9 88 1298 87.1046 1298 86C1298 84.8954 1298.9 84 1300 84C1301.1 84 1302 84.8954 1302 86ZM1300 256C1301.1 256 1302 255.105 1302 254C1302 252.895 1301.1 252 1300 252C1298.9 252 1298 252.895 1298 254C1298 255.105 1298.9 256 1300 256ZM1470 86C1470 87.1046 1469.1 88 1468 88C1466.9 88 1466 87.1046 1466 86C1466 84.8954 1466.9 84 1468 84C1469.1 84 1470 84.8954 1470 86ZM1468 256C1469.1 256 1470 255.105 1470 254C1470 252.895 1469.1 252 1468 252C1466.9 252 1466 252.895 1466 254C1466 255.105 1466.9 256 1468 256Z" fill="white" fill-opacity="0.05"/>
<path fill-rule="evenodd" clip-rule="evenodd" d="M544 4C545.105 4 546 3.10457 546 2C546 0.895431 545.105 0 544 0C542.895 0 542 0.895431 542 2C542 3.10457 542.895 4 544 4ZM544 172C545.105 172 546 171.105 546 170C546 168.895 545.105 168 544 168C542.895 168 542 168.895 542 170C542 171.105 542.895 172 544 172ZM714 2C714 3.10457 713.105 4 712 4C710.895 4 710 3.10457 710 2C710 0.895431 710.895 0 712 0C713.105 0 714 0.895431 714 2ZM712 172C713.105 172 714 171.105 714 170C714 168.895 713.105 168 712 168C710.895 168 710 168.895 710 170C710 171.105 710.895 172 712 172ZM546 86C546 87.1046 545.105 88 544 88C542.895 88 542 87.1046 542 86C542 84.8954 542.895 84 544 84C545.105 84 546 84.8954 546 86ZM544 256C545.105 256 546 255.105 546 254C546 252.895 545.105 252 544 252C542.895 252 542 252.895 542 254C542 255.105 542.895 256 544 256ZM714 86C714 87.1046 713.105 88 712 88C710.895 88 710 87.1046 710 86C710 84.8954 710.895 84 712 84C713.105 84 714 84.8954 714 86ZM712 256C713.105 256 714 255.105 714 254C714 252.895 713.105 252 712 252C710.895 252 710 252.895 710 254C710 255.105 710.895 256 712 256ZM630 2C630 3.10457 629.105 4 628 4C626.895 4 626 3.10457 626 2C626 0.895431 626.895 0 628 0C629.105 0 630 0.895431 630 2ZM628 172C629.105 172 630 171.105 630 170C630 168.895 629.105 168 628 168C626.895 168 626 168.895 626 170C626 171.105 626.895 172 628 172ZM798 2C798 3.10457 797.105 4 796 4C794.895 4 794 3.10457 794 2C794 0.895431 794.895 0 796 0C797.105 0 798 0.895431 798 2ZM796 172C797.105 172 798 171.105 798 170C798 168.895 797.105 168 796 168C794.895 168 794 168.895 794 170C794 171.105 794.895 172 796 172ZM630 86C630 87.1046 629.105 88 628 88C626.895 88 626 87.1046 626 86C626 84.8954 626.895 84 628 84C629.105 84 630 84.8954 630 86ZM628 256C629.105 256 630 255.105 630 254C630 252.895 629.105 252 628 252C626.895 252 626 252.895 626 254C626 255.105 626.895 256 628 256ZM798 86C798 87.1046 797.105 88 796 88C794.895 88 794 87.1046 794 86C794 84.8954 794.895 84 796 84C797.105 84 798 84.8954 798 86ZM796 256C797.105 256 798 255.105 798 254C798 252.895 797.105 252 796 252C794.895 252 794 252.895 794 254C794 255.105 794.895 256 796 256Z" fill="white" fill-opacity="0.05"/>
<path fill-rule="evenodd" clip-rule="evenodd" d="M880 4C881.105 4 882 3.10457 882 2C882 0.895431 881.105 0 880 0C878.895 0 878 0.895431 878 2C878 3.10457 878.895 4 880 4ZM880 172C881.105 172 882 171.105 882 170C882 168.895 881.105 168 880 168C878.895 168 878 168.895 878 170C878 171.105 878.895 172 880 172ZM1050 2C1050 3.10457 1049.1 4 1048 4C1046.9 4 1046 3.10457 1046 2C1046 0.895431 1046.9 0 1048 0C1049.1 0 1050 0.895431 1050 2ZM1048 172C1049.1 172 1050 171.105 1050 170C1050 168.895 1049.1 168 1048 168C1046.9 168 1046 168.895 1046 170C1046 171.105 1046.9 172 1048 172ZM882 86C882 87.1046 881.105 88 880 88C878.895 88 878 87.1046 878 86C878 84.8954 878.895 84 880 84C881.105 84 882 84.8954 882 86ZM880 256C881.105 256 882 255.105 882 254C882 252.895 881.105 252 880 252C878.895 252 878 252.895 878 254C878 255.105 878.895 256 880 256ZM1050 86C1050 87.1046 1049.1 88 1048 88C1046.9 88 1046 87.1046 1046 86C1046 84.8954 1046.9 84 1048 84C1049.1 84 1050 84.8954 1050 86ZM1048 256C1049.1 256 1050 255.105 1050 254C1050 252.895 1049.1 252 1048 252C1046.9 252 1046 252.895 1046 254C1046 255.105 1046.9 256 1048 256ZM966 2C966 3.10457 965.105 4 964 4C962.895 4 962 3.10457 962 2C962 0.895431 962.895 0 964 0C965.105 0 966 0.895431 966 2ZM964 172C965.105 172 966 171.105 966 170C966 168.895 965.105 168 964 168C962.895 168 962 168.895 962 170C962 171.105 962.895 172 964 172ZM1134 2C1134 3.10457 1133.1 4 1132 4C1130.9 4 1130 3.10457 1130 2C1130 0.895431 1130.9 0 1132 0C1133.1 0 1134 0.895431 1134 2ZM1132 172C1133.1 172 1134 171.105 1134 170C1134 168.895 1133.1 168 1132 168C1130.9 168 1130 168.895 1130 170C1130 171.105 1130.9 172 1132 172ZM966 86C966 87.1046 965.105 88 964 88C962.895 88 962 87.1046 962 86C962 84.8954 962.895 84 964 84C965.105 84 966 84.8954 966 86ZM964 256C965.105 256 966 255.105 966 254C966 252.895 965.105 252 964 252C962.895 252 962 252.895 962 254C962 255.105 962.895 256 964 256ZM1134 86C1134 87.1046 1133.1 88 1132 88C1130.9 88 1130 87.1046 1130 86C1130 84.8954 1130.9 84 1132 84C1133.1 84 1134 84.8954 1134 86ZM1132 256C1133.1 256 1134 255.105 1134 254C1134 252.895 1133.1 252 1132 252C1130.9 252 1130 252.895 1130 254C1130 255.105 1130.9 256 1132 256Z" fill="white" fill-opacity="0.05"/>
<path fill-rule="evenodd" clip-rule="evenodd" d="M208 4C209.105 4 210 3.10457 210 2C210 0.895431 209.105 0 208 0C206.895 0 206 0.895431 206 2C206 3.10457 206.895 4 208 4ZM208 172C209.105 172 210 171.105 210 170C210 168.895 209.105 168 208 168C206.895 168 206 168.895 206 170C206 171.105 206.895 172 208 172ZM378 2C378 3.10457 377.105 4 376 4C374.895 4 374 3.10457 374 2C374 0.895431 374.895 0 376 0C377.105 0 378 0.895431 378 2ZM376 172C377.105 172 378 171.105 378 170C378 168.895 377.105 168 376 168C374.895 168 374 168.895 374 170C374 171.105 374.895 172 376 172ZM210 86C210 87.1046 209.105 88 208 88C206.895 88 206 87.1046 206 86C206 84.8954 206.895 84 208 84C209.105 84 210 84.8954 210 86ZM208 256C209.105 256 210 255.105 210 254C210 252.895 209.105 252 208 252C206.895 252 206 252.895 206 254C206 255.105 206.895 256 208 256ZM378 86C378 87.1046 377.105 88 376 88C374.895 88 374 87.1046 374 86C374 84.8954 374.895 84 376 84C377.105 84 378 84.8954 378 86ZM376 256C377.105 256 378 255.105 378 254C378 252.895 377.105 252 376 252C374.895 252 374 252.895 374 254C374 255.105 374.895 256 376 256ZM294 2C294 3.10457 293.105 4 292 4C290.895 4 290 3.10457 290 2C290 0.895431 290.895 0 292 0C293.105 0 294 0.895431 294 2ZM292 172C293.105 172 294 171.105 294 170C294 168.895 293.105 168 292 168C290.895 168 290 168.895 290 170C290 171.105 290.895 172 292 172ZM462 2C462 3.10457 461.105 4 460 4C458.895 4 458 3.10457 458 2C458 0.895431 458.895 0 460 0C461.105 0 462 0.895431 462 2ZM460 172C461.105 172 462 171.105 462 170C462 168.895 461.105 168 460 168C458.895 168 458 168.895 458 170C458 171.105 458.895 172 460 172ZM294 86C294 87.1046 293.105 88 292 88C290.895 88 290 87.1046 290 86C290 84.8954 290.895 84 292 84C293.105 84 294 84.8954 294 86ZM292 256C293.105 256 294 255.105 294 254C294 252.895 293.105 252 292 252C290.895 252 290 252.895 290 254C290 255.105 290.895 256 292 256ZM462 86C462 87.1046 461.105 88 460 88C458.895 88 458 87.1046 458 86C458 84.8954 458.895 84 460 84C461.105 84 462 84.8954 462 86ZM460 256C461.105 256 462 255.105 462 254C462 252.895 461.105 252 460 252C458.895 252 458 252.895 458 254C458 255.105 458.895 256 460 256Z" fill="white" fill-opacity="0.05"/>
<path fill-rule="evenodd" clip-rule="evenodd" d="M-128 4C-126.895 4 -126 3.10457 -126 2C-126 0.895431 -126.895 0 -128 0C-129.105 0 -130 0.895431 -130 2C-130 3.10457 -129.105 4 -128 4ZM-128 172C-126.895 172 -126 171.105 -126 170C-126 168.895 -126.895 168 -128 168C-129.105 168 -130 168.895 -130 170C-130 171.105 -129.105 172 -128 172ZM42 2C42 3.10457 41.1046 4 40 4C38.8954 4 38 3.10457 38 2C38 0.895431 38.8954 0 40 0C41.1046 0 42 0.895431 42 2ZM40 172C41.1046 172 42 171.105 42 170C42 168.895 41.1046 168 40 168C38.8954 168 38 168.895 38 170C38 171.105 38.8954 172 40 172ZM-126 86C-126 87.1046 -126.895 88 -128 88C-129.105 88 -130 87.1046 -130 86C-130 84.8954 -129.105 84 -128 84C-126.895 84 -126 84.8954 -126 86ZM-128 256C-126.895 256 -126 255.105 -126 254C-126 252.895 -126.895 252 -128 252C-129.105 252 -130 252.895 -130 254C-130 255.105 -129.105 256 -128 256ZM42 86C42 87.1046 41.1046 88 40 88C38.8954 88 38 87.1046 38 86C38 84.8954 38.8954 84 40 84C41.1046 84 42 84.8954 42 86ZM40 256C41.1046 256 42 255.105 42 254C42 252.895 41.1046 252 40 252C38.8954 252 38 252.895 38 254C38 255.105 38.8954 256 40 256ZM-42 2C-42 3.10457 -42.8954 4 -44 4C-45.1046 4 -46 3.10457 -46 2C-46 0.895431 -45.1046 0 -44 0C-42.8954 0 -42 0.895431 -42 2ZM-44 172C-42.8954 172 -42 171.105 -42 170C-42 168.895 -42.8954 168 -44 168C-45.1046 168 -46 168.895 -46 170C-46 171.105 -45.1046 172 -44 172ZM126 2C126 3.10457 125.105 4 124 4C122.895 4 122 3.10457 122 2C122 0.895431 122.895 0 124 0C125.105 0 126 0.895431 126 2ZM124 172C125.105 172 126 171.105 126 170C126 168.895 125.105 168 124 168C122.895 168 122 168.895 122 170C122 171.105 122.895 172 124 172ZM-42 86C-42 87.1046 -42.8954 88 -44 88C-45.1046 88 -46 87.1046 -46 86C-46 84.8954 -45.1046 84 -44 84C-42.8954 84 -42 84.8954 -42 86ZM-44 256C-42.8954 256 -42 255.105 -42 254C-42 252.895 -42.8954 252 -44 252C-45.1046 252 -46 252.895 -46 254C-46 255.105 -45.1046 256 -44 256ZM126 86C126 87.1046 125.105 88 124 88C122.895 88 122 87.1046 122 86C122 84.8954 122.895 84 124 84C125.105 84 126 84.8954 126 86ZM124 256C125.105 256 126 255.105 126 254C126 252.895 125.105 252 124 252C122.895 252 122 252.895 122 254C122 255.105 122.895 256 124 256Z" fill="white" fill-opacity="0.05"/>
</svg>
