<svg width="20" height="23" viewBox="0 0 20 23" fill="none" xmlns="http://www.w3.org/2000/svg">
<g clip-path="url(#clip0_29_360)">
<path d="M16.7796 8.13813C16.7796 9.57214 15.6128 10.7261 14.1916 10.7261C12.7576 10.7261 11.6036 9.56789 11.6036 8.13813C11.6036 6.70837 12.7618 5.55013 14.1916 5.55013C15.6128 5.55013 16.7796 6.70412 16.7796 8.13813ZM19.0069 8.14661C19.0069 10.8195 16.8432 12.9747 14.1831 12.9747L9.5459 16.3603C9.37619 18.1847 7.82764 19.6187 5.96088 19.6187C4.24262 19.6187 2.79165 18.3968 2.43951 16.7761L0 15.7961V11.2437L4.12383 12.9111C4.76446 12.5208 5.48995 12.3468 6.32999 12.4232L9.34225 8.10843C9.36347 5.46528 11.5272 3.32275 14.1788 3.32275C16.8432 3.32275 19.0069 5.48649 19.0069 8.14661ZM8.61252 16.0082C8.61252 14.536 7.43307 13.3566 5.96088 13.3566C5.76997 13.3566 5.57905 13.3778 5.38813 13.4202L6.49121 13.8657C7.57308 14.2984 8.10341 15.5203 7.66642 16.6022C7.23367 17.684 6.00331 18.2144 4.92144 17.7689C4.48869 17.5992 4.0517 17.4167 3.61896 17.2513C4.06443 18.0871 4.94265 18.6598 5.96088 18.6598C7.43307 18.6598 8.61252 17.4804 8.61252 16.0082ZM17.416 8.14661C17.416 6.36471 15.9607 4.91374 14.1831 4.91374C12.3885 4.91374 10.9375 6.36471 10.9375 8.14661C10.9375 9.937 12.3927 11.3795 14.1831 11.3795C15.9607 11.3837 17.416 9.94124 17.416 8.14661Z" fill="#FF8800"/>
</g>
<defs>
<clipPath id="clip0_29_360">
<rect width="19.0069" height="21.7222" fill="white" transform="translate(0 0.607422)"/>
</clipPath>
</defs>
</svg>
