<svg width="14" height="14" viewBox="0 0 12 13" fill="none" xmlns="http://www.w3.org/2000/svg">
<g clip-path="url(#clip0_50_120)">
<path d="M10.0889 4.50684C10.0889 5.36504 9.41364 6.05566 8.5911 6.05566C7.76119 6.05566 7.09333 5.3625 7.09333 4.50684C7.09333 3.65117 7.76364 2.95801 8.5911 2.95801C9.41364 2.95801 10.0889 3.64863 10.0889 4.50684ZM11.3779 4.51191C11.3779 6.11152 10.1257 7.40137 8.58619 7.40137L5.90248 9.42754C5.80427 10.5193 4.90806 11.3775 3.82771 11.3775C2.83329 11.3775 1.99355 10.6463 1.78976 9.67637L0.37793 9.08984V6.36543L2.76454 7.36328C3.1353 7.12969 3.55516 7.02559 4.04132 7.07129L5.78463 4.48906C5.7969 2.90723 7.04914 1.625 8.58373 1.625C10.1257 1.625 11.3779 2.91992 11.3779 4.51191ZM5.3623 9.2168C5.3623 8.33574 4.67972 7.62988 3.82771 7.62988C3.71722 7.62988 3.60672 7.64258 3.49623 7.66797L4.13463 7.93457C4.76074 8.19356 5.06766 8.92481 4.81476 9.57227C4.56431 10.2197 3.85226 10.5371 3.22614 10.2705C2.9757 10.1689 2.7228 10.0598 2.47235 9.96074C2.73016 10.4609 3.23842 10.8037 3.82771 10.8037C4.67972 10.8037 5.3623 10.0979 5.3623 9.2168ZM10.4572 4.51191C10.4572 3.44551 9.61498 2.57715 8.58619 2.57715C7.54757 2.57715 6.70784 3.44551 6.70784 4.51191C6.70784 5.5834 7.55003 6.44668 8.58619 6.44668C9.61498 6.44922 10.4572 5.58594 10.4572 4.51191Z" fill="#FF8800"/>
</g>
<defs>
<clipPath id="clip0_50_120">
<rect width="11" height="13" fill="white" transform="translate(0.37793)"/>
</clipPath>
</defs>
</svg>
