<svg width="47" height="47" viewBox="0 0 47 47" fill="none" xmlns="http://www.w3.org/2000/svg">
<path d="M23.3746 6.24426C22.626 6.24426 21.8847 6.39225 21.193 6.67979C20.5014 6.96732 19.8729 7.38877 19.3436 7.92006C18.8142 8.45136 18.3943 9.0821 18.1078 9.77627C17.8213 10.4704 17.6738 11.2144 17.6738 11.9658C17.6738 12.7172 17.8213 13.4612 18.1078 14.1553C18.3943 14.8495 18.8142 15.4803 19.3436 16.0116C19.8729 16.5428 20.5014 16.9643 21.193 17.2518C21.8847 17.5394 22.626 17.6874 23.3746 17.6874C24.8866 17.6874 26.3366 17.0845 27.4057 16.0116C28.4748 14.9386 29.0755 13.4833 29.0755 11.9658C29.0755 10.4484 28.4748 8.99306 27.4057 7.92006C26.3366 6.84707 24.8866 6.24426 23.3746 6.24426Z" fill="white"/>
<path d="M36.2145 9.10217C35.0794 9.10217 33.9908 9.55473 33.1881 10.3603C32.3855 11.1658 31.9346 12.2584 31.9346 13.3976C31.9346 14.5369 32.3855 15.6294 33.1881 16.435C33.9908 17.2405 35.0794 17.6931 36.2145 17.6931C37.3496 17.6931 38.4382 17.2405 39.2408 16.435C40.0434 15.6294 40.4944 14.5369 40.4944 13.3976C40.4944 12.2584 40.0434 11.1658 39.2408 10.3603C38.4382 9.55473 37.3496 9.10217 36.2145 9.10217Z" fill="white"/>
<path d="M10.5348 9.10217C9.39968 9.10217 8.31107 9.55473 7.50843 10.3603C6.7058 11.1658 6.25488 12.2584 6.25488 13.3976C6.25488 14.5369 6.7058 15.6294 7.50843 16.435C8.31107 17.2405 9.39968 17.6931 10.5348 17.6931C11.6699 17.6931 12.7585 17.2405 13.5611 16.435C14.3637 15.6294 14.8147 14.5369 14.8147 13.3976C14.8147 12.2584 14.3637 11.1658 13.5611 10.3603C12.7585 9.55473 11.6699 9.10217 10.5348 9.10217Z" fill="white"/>
<path d="M14.8149 23.4004C14.8202 22.6443 15.1232 21.9211 15.6577 21.3884C16.1922 20.8557 16.9149 20.5567 17.6682 20.5568H29.0812C29.838 20.5568 30.5637 20.8585 31.0988 21.3955C31.6339 21.9325 31.9345 22.6609 31.9345 23.4204V32.0113C31.9343 32.9125 31.7938 33.8082 31.5179 34.6659C30.8861 36.6095 29.5847 38.2633 27.8473 39.3305C26.1098 40.3976 24.0502 40.8082 22.0383 40.4885C20.0264 40.1687 18.194 39.1396 16.8701 37.5859C15.5462 36.0322 14.8175 34.0557 14.8149 32.0113V23.4204V23.4004Z" fill="white"/>
<path d="M11.9616 23.4204C11.9616 22.3752 12.2384 21.3987 12.7263 20.5568H6.25512C5.49838 20.5568 4.77265 20.8585 4.23756 21.3955C3.70247 21.9325 3.40186 22.6609 3.40186 23.4204V30.5795C3.40147 31.7516 3.68783 32.9059 4.23579 33.9409C4.78375 34.976 5.57654 35.8602 6.54456 36.5159C7.51257 37.1716 8.62619 37.5788 9.78761 37.7016C10.949 37.8244 12.1227 37.6591 13.2057 37.2203C12.3844 35.6068 11.958 33.8202 11.9616 32.0084V23.4204Z" fill="white"/>
<path d="M34.788 23.4204V32.0113C34.788 33.887 34.34 35.6567 33.5439 37.2203C34.6269 37.6591 35.8006 37.8244 36.962 37.7016C38.1234 37.5788 39.237 37.1716 40.2051 36.5159C41.1731 35.8602 41.9659 34.976 42.5138 33.9409C43.0618 32.9059 43.3481 31.7516 43.3478 30.5795V23.4204C43.3478 22.6609 43.0471 21.9325 42.5121 21.3955C41.977 20.8585 41.2512 20.5568 40.4945 20.5568H34.0233C34.5083 21.3987 34.788 22.3752 34.788 23.4204Z" fill="white"/>
</svg>
