<svg width="14" height="14" viewBox="0 0 14 14" fill="none" xmlns="http://www.w3.org/2000/svg">
<path d="M9.33333 9.33337V9.91671C9.33333 10.3808 9.14896 10.826 8.82077 11.1541C8.49258 11.4823 8.04746 11.6667 7.58333 11.6667H3.5C3.03587 11.6667 2.59075 11.4823 2.26256 11.1541C1.93437 10.826 1.75 10.3808 1.75 9.91671V4.08337C1.75 3.61924 1.93437 3.17413 2.26256 2.84594C2.59075 2.51775 3.03587 2.33337 3.5 2.33337H7.58333C8.04746 2.33337 8.49258 2.51775 8.82077 2.84594C9.14896 3.17413 9.33333 3.61924 9.33333 4.08337V4.66671M6.41667 9.33337L4.08333 7.00004L6.41667 9.33337ZM4.08333 7.00004L6.41667 4.66671L4.08333 7.00004ZM4.08333 7.00004H12.25H4.08333Z" stroke="white" stroke-width="0.7" stroke-linecap="round" stroke-linejoin="round"/>
</svg>
