<svg width="72" height="20" viewBox="0 0 72 20" fill="none" xmlns="http://www.w3.org/2000/svg">
<g clip-path="url(#clip0_30_1045)">
<path d="M-15.954 0C-14.0864 0.315959 -12.2702 0.874011 -10.5536 1.6594C-7.59091 5.9854 -6.119 10.8644 -6.66248 16.492C-8.92925 18.1492 -11.1279 19.1546 -13.2898 19.8126C-13.8268 19.0911 -14.3013 18.3271 -14.7083 17.5284C-13.9313 17.2394 -13.1824 16.8829 -12.4706 16.4632C-12.6568 16.3267 -12.8394 16.1854 -13.0181 16.0396C-17.2737 18.0096 -21.9535 18.0096 -26.2604 16.0396C-26.4375 16.1856 -26.6208 16.3276 -26.8082 16.4632C-26.0974 16.8818 -25.3498 17.2375 -24.5743 17.5262C-24.9816 18.3248 -25.4561 19.0889 -25.9928 19.8106C-28.1526 19.1526 -30.3493 18.1472 -32.616 16.492C-33.0795 11.6376 -32.1531 6.7132 -28.7354 1.6634C-27.0178 0.875502 -25.2001 0.316063 -23.3307 0C-23.0961 0.4112 -22.8181 0.9644 -22.6307 1.4044C-20.6542 1.1084 -18.6593 1.1084 -16.6457 1.4044C-16.4394 0.925206 -16.2085 0.456479 -15.954 0ZM35.9869 6.3374C37.4279 6.3374 38.6241 6.6394 39.5754 7.244V9.878C39.24 9.6476 38.8485 9.4606 38.4017 9.3166C37.955 9.1726 37.4772 9.1006 36.9667 9.1006C36.0732 9.1006 35.3753 9.2632 34.8709 9.59C34.3663 9.917 34.1134 10.3426 34.1134 10.871C34.1134 11.389 34.3581 11.8128 34.8482 12.1458C35.3385 12.4768 36.0485 12.6434 36.9812 12.6434C37.4608 12.6434 37.9344 12.5734 38.4017 12.4358C38.8671 12.2958 39.2686 12.1252 39.6041 11.9238V14.4712C38.548 15.1046 37.323 15.4212 35.929 15.4212C34.7557 15.4172 33.7549 15.2156 32.9293 14.8126C32.104 14.4096 31.4799 13.8626 31.0641 13.1718C30.6482 12.481 30.4382 11.7038 30.4382 10.8402C30.4382 9.9766 30.6544 9.2036 31.0866 8.523C31.519 7.8424 32.1531 7.3078 32.9893 6.919C33.8248 6.5306 34.8234 6.3374 35.9869 6.3374ZM25.163 6.3354C25.9699 6.3354 26.7091 6.4216 27.3827 6.5944C28.0556 6.7672 28.6116 6.9872 29.0544 7.2564V9.5162C28.6012 9.2468 28.0822 9.035 27.4897 8.8746C26.8951 8.71611 26.2814 8.63659 25.6651 8.6382C24.7614 8.6382 24.3108 8.7922 24.3108 9.0988C24.3108 9.2428 24.3808 9.3496 24.5207 9.4216C24.6606 9.4936 24.9179 9.5676 25.2906 9.6456L26.7316 9.9048C27.6729 10.0672 28.3747 10.3528 28.8358 10.76C29.2972 11.1672 29.5275 11.7696 29.5275 12.5674C29.5275 13.4414 29.1471 14.1342 28.3829 14.6482C27.6191 15.1622 26.5361 15.4192 25.1321 15.4192C24.3063 15.4172 23.5039 15.3164 22.7254 15.1148C21.9471 14.9134 21.2449 14.6214 20.6212 14.2368V11.848C21.0927 12.212 21.7247 12.512 22.5174 12.7486C23.31 12.983 24.076 13.1002 24.8171 13.1002C25.1627 13.1002 25.4246 13.0548 25.6015 12.9644C25.7786 12.874 25.8674 12.765 25.8674 12.6396C25.8674 12.4956 25.8199 12.3764 25.723 12.2796C25.6262 12.183 25.4387 12.1028 25.1611 12.035L23.4317 11.6464C22.4413 11.4162 21.7391 11.0974 21.3214 10.6884C20.9033 10.2812 20.6953 9.7466 20.6953 9.0844C20.6953 8.5274 20.8765 8.0442 21.243 7.6308C21.6073 7.2176 22.1263 6.8988 22.7994 6.6748C23.4728 6.4488 24.2591 6.3354 25.163 6.3354ZM72 4.7666V15.1292H68.4689V13.244C68.1703 13.9534 67.7174 14.494 67.1081 14.8642C66.4985 15.2322 65.745 15.4174 64.8515 15.4174C64.0528 15.4174 63.3571 15.224 62.7617 14.8354C62.1669 14.4468 61.7079 13.9144 61.3847 13.2378C61.0635 12.5614 60.9005 11.7966 60.9005 10.9412C60.8903 10.0592 61.0613 9.2676 61.4133 8.5664C61.7635 7.8652 62.2593 7.3184 62.8977 6.9256C63.5359 6.533 64.2649 6.3356 65.0822 6.3356C66.7354 6.3356 67.8534 7.0404 68.4384 8.4484L68.4687 8.523V4.7666H72ZM46.1182 6.3332C47.261 6.3332 48.2469 6.5244 49.0727 6.909C49.8982 7.2934 50.5284 7.8198 50.9606 8.4922C51.3932 9.1646 51.609 9.9356 51.609 10.8094C51.609 11.673 51.3932 12.4544 50.9606 13.1554C50.5284 13.8566 49.8962 14.4074 49.0645 14.8106C48.2326 15.2136 47.2506 15.415 46.1164 15.415C44.9818 15.415 43.9997 15.2156 43.1701 14.8126C42.3382 14.4096 41.7043 13.8586 41.2676 13.1574C40.8313 12.4564 40.611 11.675 40.611 10.8114C40.611 9.948 40.8291 9.1768 41.2676 8.5004C41.706 7.824 42.3362 7.2934 43.1638 6.909C43.9893 6.5244 44.9756 6.3332 46.1182 6.3332ZM19.0446 8.6936V15.1744H15.5244V8.6936C16.6029 9.1582 17.9413 9.1788 19.0446 8.6936ZM58.9571 6.5224C59.4656 6.5224 59.9021 6.6376 60.2687 6.8678V9.9766C59.9023 9.736 59.4286 9.6168 58.842 9.6168C58.0737 9.6168 57.4809 9.8492 57.069 10.3138C56.6554 10.7786 56.4492 11.5022 56.4492 12.481V15.1292H52.9185V6.7096H56.3774V9.3866C56.5689 8.4078 56.88 7.6862 57.3081 7.2194C57.7344 6.7548 58.2858 6.5224 58.9571 6.5224ZM8.06827 5.0544C9.42318 5.0544 10.5678 5.2662 11.5067 5.6876C12.4435 6.1092 13.1457 6.6972 13.611 7.4496C14.076 8.2022 14.3106 9.0636 14.3106 10.0342C14.3106 10.9842 14.0678 11.8456 13.582 12.6166C13.096 13.3898 12.3568 14.0006 11.3627 14.4506C10.3684 14.901 9.13681 15.1272 7.66491 15.1272H2.44777V5.0544H8.06827ZM-23.9875 8.2696C-25.3031 8.2696 -26.3408 9.452 -26.3408 10.8892C-26.3408 12.3264 -25.2804 13.5066 -23.9875 13.5066C-22.6718 13.5066 -21.6321 12.3264 -21.6342 10.8892C-21.6117 9.4498 -22.6718 8.2696 -23.9875 8.2696ZM-15.291 8.2696C-16.6067 8.2696 -17.6443 9.452 -17.6443 10.8892C-17.6443 12.3264 -16.584 13.5066 -15.291 13.5066C-13.9754 13.5066 -12.9377 12.3264 -12.9377 10.8892C-12.9152 9.4498 -13.9754 8.2696 -15.291 8.2696ZM46.1164 8.9856C45.5007 8.9856 45.0188 9.1562 44.6668 9.4976C44.317 9.839 44.1417 10.2954 44.1417 10.8712C44.1417 11.4468 44.3168 11.9094 44.6668 12.259C45.0169 12.6086 45.5005 12.7854 46.1164 12.7854C46.7212 12.7834 47.1992 12.6086 47.549 12.259C47.8994 11.9094 48.0761 11.447 48.0761 10.871C48.0761 10.2954 47.901 9.837 47.549 9.4976C47.1992 9.1562 46.7212 8.9856 46.1164 8.9856ZM66.5233 9.0288C65.9282 9.0288 65.4529 9.1994 65.0966 9.5408C64.7402 9.8822 64.5633 10.3242 64.5633 10.8712C64.5633 11.418 64.7402 11.8642 65.0966 12.2096C65.4529 12.555 65.9223 12.7276 66.5089 12.7276C67.1038 12.7256 67.5814 12.551 67.942 12.2016C68.3024 11.8518 68.4814 11.3976 68.4814 10.8424C68.4814 10.3056 68.3063 9.8678 67.9563 9.5324C67.6061 9.1974 67.1265 9.0288 66.5233 9.0288ZM7.81095 7.6162H6.05268V12.5674H7.60722C8.51949 12.5674 9.22149 12.3392 9.71138 11.8848C10.2015 11.4282 10.4465 10.8074 10.4465 10.0198C10.4465 9.2898 10.2281 8.708 9.79177 8.2722C9.35527 7.8362 8.69438 7.6162 7.81095 7.6162ZM17.2861 4.448C18.2581 4.448 19.0464 5.1548 19.0464 6.027C19.0464 6.899 18.2581 7.6062 17.2861 7.6062C16.3137 7.6062 15.5256 6.8992 15.5256 6.027C15.5256 5.155 16.3137 4.448 17.2861 4.448Z" fill="white"/>
</g>
<defs>
<clipPath id="clip0_30_1045">
<rect width="72" height="20" fill="white"/>
</clipPath>
</defs>
</svg>
