<svg width="52" height="37" viewBox="0 0 52 37" fill="none" xmlns="http://www.w3.org/2000/svg">
<g clip-path="url(#clip0_30_1043)">
<path d="M30.4582 0C33.8495 0.584524 37.1474 1.61692 40.2647 3.06989C45.6445 11.073 48.3173 20.0991 47.3304 30.5102C43.2142 33.576 39.2217 35.436 35.2961 36.6533C34.3209 35.3186 33.4593 33.9051 32.7202 32.4275C34.1311 31.8929 35.491 31.2334 36.7837 30.4569C36.4455 30.2043 36.1139 29.943 35.7894 29.6733C28.0618 33.3178 19.5639 33.3178 11.7431 29.6733C11.4214 29.9434 11.0886 30.2061 10.7484 30.4569C12.0391 31.2313 13.3966 31.8894 14.8048 32.4235C14.0652 33.9008 13.2036 35.3144 12.2289 36.6496C8.30699 35.4323 4.31822 33.5723 0.202048 30.5102C-0.639609 21.5296 1.04259 12.4194 7.24879 3.07729C10.3676 1.61968 13.6684 0.584717 17.063 0C17.4891 0.76072 17.9938 1.78414 18.3341 2.59814C21.9232 2.05054 25.5457 2.05054 29.2021 2.59814C29.5767 1.71163 29.996 0.844486 30.4582 0V0ZM124.776 11.7242C127.393 11.7242 129.565 12.2829 131.293 13.4014V18.2743C130.683 17.8481 129.973 17.5021 129.161 17.2357C128.35 16.9693 127.482 16.8361 126.555 16.8361C124.933 16.8361 123.666 17.1369 122.75 17.7415C121.833 18.3465 121.374 19.1338 121.374 20.1114C121.374 21.0697 121.819 21.8537 122.708 22.4697C123.599 23.0821 124.888 23.3903 126.582 23.3903C127.453 23.3903 128.313 23.2608 129.161 23.0062C130.006 22.7472 130.735 22.4316 131.345 22.059V26.7717C129.427 27.9435 127.202 28.5292 124.671 28.5292C122.541 28.5218 120.723 28.1489 119.224 27.4033C117.725 26.6578 116.592 25.6458 115.837 24.3678C115.082 23.0899 114.7 21.652 114.7 20.0544C114.7 18.4567 115.093 17.0267 115.878 15.7676C116.663 14.5084 117.815 13.5194 119.333 12.8002C120.85 12.0816 122.664 11.7242 124.776 11.7242ZM105.121 11.7205C106.587 11.7205 107.929 11.88 109.152 12.1996C110.374 12.5193 111.384 12.9263 112.188 13.4243V17.605C111.365 17.1066 110.422 16.7148 109.346 16.418C108.267 16.1248 107.152 15.9777 106.033 15.9807C104.392 15.9807 103.574 16.2656 103.574 16.8328C103.574 17.0992 103.701 17.2968 103.955 17.43C104.209 17.5632 104.676 17.7001 105.353 17.8444L107.97 18.3239C109.679 18.6243 110.954 19.1527 111.791 19.906C112.629 20.6593 113.047 21.7738 113.047 23.2497C113.047 24.8666 112.356 26.1483 110.968 27.0992C109.581 28.0501 107.615 28.5255 105.065 28.5255C103.566 28.5218 102.109 28.3353 100.695 27.9624C99.2817 27.5898 98.0066 27.0496 96.8741 26.3381V21.9188C97.7303 22.5922 98.878 23.1472 100.317 23.5849C101.757 24.0186 103.148 24.2354 104.493 24.2354C105.121 24.2354 105.596 24.1514 105.918 23.9841C106.239 23.8169 106.401 23.6153 106.401 23.3833C106.401 23.1169 106.314 22.8963 106.138 22.7173C105.963 22.5385 105.622 22.3902 105.118 22.2647L101.978 21.5458C100.179 21.12 98.904 20.5302 98.1455 19.7735C97.3863 19.0202 97.0086 18.0312 97.0086 16.8061C97.0086 15.7757 97.3377 14.8818 98.0033 14.117C98.6648 13.3526 99.6071 12.7628 100.829 12.3484C102.052 11.9303 103.48 11.7209 105.121 11.7209V11.7205ZM190.171 8.81821V27.989H183.759V24.5014C183.217 25.8138 182.395 26.8139 181.288 27.4988C180.181 28.1796 178.813 28.5222 177.191 28.5222C175.74 28.5222 174.477 28.1644 173.396 27.4455C172.316 26.7266 171.482 25.7416 170.895 24.4899C170.312 23.2386 170.016 21.8237 170.016 20.2412C169.998 18.6095 170.308 17.1451 170.947 15.8478C171.583 14.5506 172.484 13.539 173.643 12.8124C174.802 12.086 176.125 11.7209 177.61 11.7209C180.612 11.7209 182.642 13.0247 183.704 15.6295L183.759 15.7676V8.81821H190.171ZM143.173 11.7164C145.249 11.7164 147.039 12.0701 148.538 12.7816C150.037 13.4928 151.182 14.4666 151.967 15.7106C152.752 16.9545 153.144 18.3809 153.144 19.9974C153.144 21.5951 152.752 23.0406 151.967 24.3375C151.182 25.6347 150.034 26.6537 148.524 27.3996C147.013 28.1452 145.23 28.5177 143.17 28.5177C141.11 28.5177 139.327 28.1489 137.82 27.4033C136.309 26.6578 135.158 25.6384 134.365 24.3412C133.573 23.0443 133.173 21.5987 133.173 20.0011C133.173 18.4038 133.569 16.9771 134.365 15.7257C135.161 14.4744 136.306 13.4928 137.809 12.7816C139.308 12.0701 141.099 11.7164 143.173 11.7164ZM94.0112 16.0832V28.0726H87.6189V16.0832C89.5774 16.9427 92.0077 16.9808 94.0112 16.0832ZM166.487 12.0664C167.411 12.0664 168.203 12.2796 168.869 12.7054V18.4567C168.204 18.0116 167.343 17.7911 166.278 17.7911C164.883 17.7911 163.807 18.221 163.059 19.0805C162.308 19.9404 161.933 21.2791 161.933 23.0898V27.989H155.522V12.4128H161.803V17.3652C162.15 15.5544 162.715 14.2195 163.493 13.3559C164.267 12.4964 165.268 12.0664 166.487 12.0664ZM74.0796 9.35064C76.5399 9.35064 78.6184 9.74247 80.3233 10.5221C82.0244 11.302 83.2995 12.3898 84.1445 13.7818C84.9888 15.1741 85.4148 16.7677 85.4148 18.5633C85.4148 20.3208 84.9739 21.9144 84.0918 23.3407C83.2093 24.7711 81.8669 25.9011 80.0618 26.7336C78.2563 27.5669 76.0199 27.9853 73.3471 27.9853H63.8734V9.35064H74.0796ZM15.8704 15.2988C13.4814 15.2988 11.5971 17.4862 11.5971 20.145C11.5971 22.8038 13.5226 24.9872 15.8704 24.9872C18.2594 24.9872 20.1474 22.8038 20.1437 20.145C20.1845 17.4821 18.2594 15.2988 15.8704 15.2988ZM31.6621 15.2988C29.273 15.2988 27.3888 17.4862 27.3888 20.145C27.3888 22.8038 29.3143 24.9872 31.6621 24.9872C34.0511 24.9872 35.9353 22.8038 35.9353 20.145C35.9762 17.4821 34.0511 15.2988 31.6621 15.2988ZM143.17 16.6234C142.052 16.6234 141.177 16.939 140.538 17.5706C139.903 18.2022 139.584 19.0465 139.584 20.1117C139.584 21.1766 139.902 22.0324 140.538 22.6791C141.174 23.3259 142.052 23.653 143.17 23.653C144.268 23.6493 145.136 23.3259 145.772 22.6791C146.408 22.0324 146.729 21.177 146.729 20.1114C146.729 19.0465 146.411 18.1985 145.772 17.5706C145.136 16.939 144.268 16.6234 143.17 16.6234ZM180.226 16.7033C179.146 16.7033 178.283 17.0189 177.636 17.6505C176.989 18.2821 176.667 19.0998 176.667 20.1117C176.667 21.1233 176.989 21.9488 177.636 22.5878C178.283 23.2268 179.135 23.5461 180.2 23.5461C181.281 23.5424 182.148 23.2194 182.803 22.573C183.457 21.9258 183.782 21.0856 183.782 20.0584C183.782 19.0654 183.464 18.2554 182.829 17.6349C182.193 17.0152 181.322 16.7033 180.226 16.7033ZM73.6123 14.09H70.4195V23.2497H73.2424C74.8989 23.2497 76.1737 22.8275 77.0632 21.9869C77.9532 21.1422 78.3982 19.9937 78.3982 18.5366C78.3982 17.1861 78.0015 16.1098 77.2092 15.3036C76.4166 14.497 75.2165 14.09 73.6123 14.09ZM90.818 8.2288C92.583 8.2288 94.0145 9.53638 94.0145 11.15C94.0145 12.7632 92.583 14.0715 90.818 14.0715C89.0522 14.0715 87.6211 12.7635 87.6211 11.15C87.6211 9.53675 89.0522 8.2288 90.818 8.2288Z" fill="white"/>
</g>
<defs>
<clipPath id="clip0_30_1043">
<rect width="52" height="37" fill="white"/>
</clipPath>
</defs>
</svg>
