<svg width="14" height="14" viewBox="0 0 14 14" fill="none" xmlns="http://www.w3.org/2000/svg">
<path d="M6.66634 2.99988H3.66634C3.31272 2.99988 2.97358 3.14035 2.72353 3.3904C2.47348 3.64045 2.33301 3.97959 2.33301 4.33321V10.3332C2.33301 10.6868 2.47348 11.026 2.72353 11.276C2.97358 11.5261 3.31272 11.6665 3.66634 11.6665H10.333C10.6866 11.6665 11.0258 11.5261 11.2758 11.276C11.5259 11.026 11.6663 10.6868 11.6663 10.3332V7.33321" stroke="white" stroke-width="0.7" stroke-linecap="round" stroke-linejoin="round"/>
<path fill-rule="evenodd" clip-rule="evenodd" d="M11.6667 2.31125C11.8444 2.49502 11.9428 2.74126 11.9407 2.9969C11.9386 3.25254 11.8361 3.49712 11.6553 3.67791L7 8.33325L5 8.99991L5.66667 6.99991L10.3247 2.30258C10.4884 2.13757 10.7076 2.03914 10.9397 2.02633C11.1718 2.01352 11.4004 2.08725 11.5813 2.23325L11.6667 2.31125Z" stroke="white" stroke-width="0.7" stroke-linecap="round" stroke-linejoin="round"/>
<path d="M10.333 3.66663L10.9683 4.33329" stroke="white" stroke-width="0.7" stroke-linecap="round" stroke-linejoin="round"/>
</svg>
